<svg width="22" height="22" viewBox="0 0 22 22" fill="none" xmlns="http://www.w3.org/2000/svg">
<path fill-rule="evenodd" clip-rule="evenodd" d="M10.8117 9.87392C10.9114 9.75752 11.0915 9.75752 11.1913 9.87392L13.8606 12.9881C14.1302 13.3026 14.6036 13.339 14.9181 13.0695C15.2326 12.7999 15.269 12.3264 14.9995 12.0119L12.3302 8.89774C11.6318 8.08292 10.3712 8.08292 9.67277 8.89774L7.00346 12.0119C6.73389 12.3264 6.77031 12.7999 7.0848 13.0695C7.3993 13.339 7.87277 13.3026 8.14234 12.9881L10.8117 9.87392Z" fill="#13B0B9"/>
<path fill-rule="evenodd" clip-rule="evenodd" d="M11 1.75C16.1086 1.75 20.25 5.89137 20.25 11C20.25 16.1086 16.1086 20.25 11 20.25C5.89137 20.25 1.75 16.1086 1.75 11C1.75 5.89137 5.89137 1.75 11 1.75ZM21.75 11C21.75 5.06294 16.9371 0.25 11 0.25C5.06294 0.25 0.25 5.06294 0.25 11C0.25 16.9371 5.06294 21.75 11 21.75C16.9371 21.75 21.75 16.9371 21.75 11Z" fill="#13B0B9"/>
</svg>
