<svg width="24" height="24" viewBox="0 0 24 24" fill="none" xmlns="http://www.w3.org/2000/svg">
<path fill-rule="evenodd" clip-rule="evenodd" d="M11.8117 10.8739C11.9114 10.7575 12.0915 10.7575 12.1913 10.8739L14.8606 13.9881C15.1302 14.3026 15.6036 14.339 15.9181 14.0695C16.2326 13.7999 16.269 13.3264 15.9995 13.0119L13.3302 9.89774C12.6318 9.08292 11.3712 9.08292 10.6728 9.89774L8.00346 13.0119C7.73389 13.3264 7.77031 13.7999 8.0848 14.0695C8.3993 14.339 8.87277 14.3026 9.14234 13.9881L11.8117 10.8739Z" fill="black"/>
<path fill-rule="evenodd" clip-rule="evenodd" d="M12 2.75C17.1086 2.75 21.25 6.89137 21.25 12C21.25 17.1086 17.1086 21.25 12 21.25C6.89137 21.25 2.75 17.1086 2.75 12C2.75 6.89137 6.89137 2.75 12 2.75ZM22.75 12C22.75 6.06294 17.9371 1.25 12 1.25C6.06294 1.25 1.25 6.06294 1.25 12C1.25 17.9371 6.06294 22.75 12 22.75C17.9371 22.75 22.75 17.9371 22.75 12Z" fill="black"/>
</svg>
