<?xml version="1.0" standalone="no"?>
<!DOCTYPE svg PUBLIC "-//W3C//DTD SVG 20010904//EN"
 "http://www.w3.org/TR/2001/REC-SVG-20010904/DTD/svg10.dtd">
<svg version="1.0" xmlns="http://www.w3.org/2000/svg"
 width="50.000000pt" height="50.000000pt" viewBox="0 0 50.000000 50.000000"
 preserveAspectRatio="xMidYMid meet">
<metadata>
Created by potrace 1.16, written by Peter Selinger 2001-2019
</metadata>
<g transform="translate(0.000000,50.000000) scale(0.100000,-0.100000)"
fill="#000000" stroke="none">
<path d="M160 355 l-105 -105 105 -105 c99 -99 130 -121 130 -93 0 7 -42 54
-92 105 l-93 93 93 93 c50 51 92 98 92 105 0 28 -31 6 -130 -93z"/>
<path d="M290 355 l-105 -105 105 -105 c99 -99 130 -121 130 -93 0 7 -42 54
-92 105 l-93 93 93 93 c50 51 92 98 92 105 0 28 -31 6 -130 -93z"/>
</g>
</svg>
